<?xml version="1.0" encoding="utf-8"?>
<!-- Generator: Adobe Illustrator 16.0.0, SVG Export Plug-In . SVG Version: 6.00 Build 0)  -->
<!DOCTYPE svg PUBLIC "-//W3C//DTD SVG 1.0//EN" "http://www.w3.org/TR/2001/REC-SVG-20010904/DTD/svg10.dtd">
<svg version="1.0" id="Layer_1" xmlns="http://www.w3.org/2000/svg" xmlns:xlink="http://www.w3.org/1999/xlink" x="0px" y="0px"
	 width="90px" height="90px" viewBox="251.349 371.417 90 90" enable-background="new 251.349 371.417 90 90" xml:space="preserve">
<g>
	<g>
		<path fill="#4E4E4E" d="M318.847,416.401c12.428,0,22.502,10.078,22.502,22.508c0,12.433-10.074,22.508-22.502,22.508
			c-12.424,0-22.498-10.075-22.498-22.508C296.349,426.479,306.423,416.401,318.847,416.401z"/>
		<g>
			<polyline fill="none" stroke="#FFFFFF" stroke-width="3.3093" stroke-miterlimit="1" points="319.579,449.86 332.206,438.909 
				319.579,427.958 			"/>
			<line fill="none" stroke="#FFFFFF" stroke-width="3" stroke-miterlimit="1" x1="332.55" y1="439.444" x2="303.55" y2="439.444"/>
		</g>
	</g>
	<g>
		<path fill="#4E4E4E" d="M273.851,416.401c-12.428,0-22.502,10.078-22.502,22.508c0,12.433,10.074,22.508,22.502,22.508
			c12.424,0,22.498-10.075,22.498-22.508C296.349,426.479,286.275,416.401,273.851,416.401z"/>
		<g>
			<polyline fill="none" stroke="#FFFFFF" stroke-width="3.3093" stroke-miterlimit="1" points="273.118,449.86 260.491,438.909 
				273.118,427.958 			"/>
			
				<line fill="none" stroke="#FFFFFF" stroke-width="3.3093" stroke-miterlimit="1" x1="260.491" y1="438.909" x2="289.175" y2="438.909"/>
		</g>
	</g>
	<g>
		<path opacity="0.4" fill="#4E4E4E" enable-background="new    " d="M273.851,371.417c-12.428,0-22.502,10.077-22.502,22.509
			c0,12.431,10.074,22.508,22.502,22.508c12.424,0,22.498-10.077,22.498-22.508C296.349,381.494,286.275,371.417,273.851,371.417z"
			/>
		<g>
			<polyline fill="none" stroke="#FFFFFF" stroke-width="3.3093" stroke-miterlimit="1" points="273.118,404.875 260.491,393.925 
				273.118,382.973 			"/>
			<line fill="none" stroke="#FFFFFF" stroke-width="3" stroke-miterlimit="1" x1="260.55" y1="394.444" x2="289.55" y2="394.444"/>
		</g>
	</g>
	<g>
		<path opacity="0.4" fill="#4E4E4E" enable-background="new    " d="M318.847,371.417c12.428,0,22.502,10.077,22.502,22.509
			c0,12.431-10.074,22.508-22.502,22.508c-12.424,0-22.498-10.077-22.498-22.508C296.349,381.494,306.423,371.417,318.847,371.417z"
			/>
		<polyline fill="none" stroke="#FFFFFF" stroke-width="3.3093" stroke-miterlimit="1" points="319.579,404.875 332.206,393.925 
			319.579,382.973 		"/>
		<line fill="none" stroke="#FFFFFF" stroke-width="3" stroke-miterlimit="1" x1="332.55" y1="394.444" x2="303.55" y2="394.444"/>
	</g>
</g>
</svg>
