<?xml version="1.0" encoding="utf-8"?>
<!-- Generator: Adobe Illustrator 16.0.0, SVG Export Plug-In . SVG Version: 6.00 Build 0)  -->
<!DOCTYPE svg PUBLIC "-//W3C//DTD SVG 1.0//EN" "http://www.w3.org/TR/2001/REC-SVG-20010904/DTD/svg10.dtd">
<svg version="1.0" id="Layer_1" xmlns="http://www.w3.org/2000/svg" xmlns:xlink="http://www.w3.org/1999/xlink" x="0px" y="0px"
	 width="45px" height="90px" viewBox="242.736 232.824 45 90" enable-background="new 242.736 232.824 45 90" xml:space="preserve">
<g>
	<path fill="#4E4E4E" d="M265.234,277.824c12.428,0,22.502,10.074,22.502,22.5c0,12.427-10.074,22.5-22.502,22.5
		c-12.424,0-22.498-10.073-22.498-22.5C242.736,287.898,252.811,277.824,265.234,277.824z"/>
	<g>
		<path fill="none" stroke="#FFFFFF" stroke-width="3.3097" stroke-miterlimit="1" d="M269.49,309.534"/>
		
			<line fill="none" stroke="#FFFFFF" stroke-width="3.3097" stroke-miterlimit="1" x1="274.444" y1="291.111" x2="256.03" y2="309.535"/>
		<path fill="none" stroke="#FFFFFF" stroke-width="3.3097" stroke-miterlimit="1" d="M256.03,309.535"/>
		
			<line fill="none" stroke="#FFFFFF" stroke-width="3.3097" stroke-miterlimit="1" x1="256.028" y1="291.111" x2="274.444" y2="309.534"/>
	</g>
</g>
<g>
	<path opacity="0.4" fill="#4E4E4E" enable-background="new    " d="M265.234,232.824c12.428,0,22.502,10.075,22.502,22.5
		c0,12.428-10.074,22.5-22.502,22.5c-12.424,0-22.498-10.073-22.498-22.5C242.736,242.898,252.811,232.824,265.234,232.824z"/>
	<g>
		<path fill="none" stroke="#FFFFFF" stroke-width="3.3097" stroke-miterlimit="1" d="M269.49,264.534"/>
		
			<line fill="none" stroke="#FFFFFF" stroke-width="3.3097" stroke-miterlimit="1" x1="274.444" y1="246.111" x2="256.03" y2="264.536"/>
		<path fill="none" stroke="#FFFFFF" stroke-width="3.3097" stroke-miterlimit="1" d="M256.03,264.536"/>
		
			<line fill="none" stroke="#FFFFFF" stroke-width="3.3097" stroke-miterlimit="1" x1="256.028" y1="246.111" x2="274.444" y2="264.534"/>
	</g>
</g>
</svg>
