<?xml version="1.0" encoding="utf-8"?>
<!-- Generator: Adobe Illustrator 16.0.0, SVG Export Plug-In . SVG Version: 6.00 Build 0)  -->
<!DOCTYPE svg PUBLIC "-//W3C//DTD SVG 1.0//EN" "http://www.w3.org/TR/2001/REC-SVG-20010904/DTD/svg10.dtd">
<svg version="1.0" id="Layer_1" xmlns="http://www.w3.org/2000/svg" xmlns:xlink="http://www.w3.org/1999/xlink" x="0px" y="0px"
	 width="41.275px" height="53.665px" viewBox="576.695 315.885 41.275 53.665"
	 enable-background="new 576.695 315.885 41.275 53.665" xml:space="preserve">
<g>
	<polygon fill="#FFFFFF" points="607.929,316.553 577.363,316.553 577.363,368.882 617.303,368.882 617.301,325.404 	"/>
	<path fill="#4E4E4E" d="M617.971,369.55h-41.275v-53.665h31.499l9.774,9.231L617.971,369.55z M578.031,368.214h38.604
		l-0.002-42.521l-8.97-8.472h-29.632V368.214z"/>
</g>
<g>
	<path fill="#4E4E4E" d="M617.301,326.072h-10.04v-9.52c0-0.369,0.299-0.668,0.668-0.668s0.668,0.299,0.668,0.668v8.184h8.704
		c0.369,0,0.668,0.299,0.668,0.668S617.67,326.072,617.301,326.072z"/>
</g>
<g>
	<path fill="#4E4E4E" d="M591.506,347.567l-5.738-2.525v-0.711l5.738-2.866v1.146l-4.305,2.021l4.305,1.779V347.567z"/>
</g>
<g>
	<path fill="#4E4E4E" d="M599.787,340.279l-3.195,8.586h-1.304l3.201-8.586H599.787z"/>
</g>
<g>
	<path fill="#4E4E4E" d="M603.575,346.41l4.305-1.779l-4.305-2.021v-1.146l5.737,2.866v0.711l-5.737,2.525V346.41z"/>
</g>
</svg>
