<?xml version="1.0" encoding="UTF-8" standalone="no"?>
<!-- Generator: Adobe Illustrator 16.0.0, SVG Export Plug-In . SVG Version: 6.00 Build 0)  -->

<svg
   xmlns:dc="http://purl.org/dc/elements/1.1/"
   xmlns:cc="http://creativecommons.org/ns#"
   xmlns:rdf="http://www.w3.org/1999/02/22-rdf-syntax-ns#"
   xmlns:svg="http://www.w3.org/2000/svg"
   xmlns="http://www.w3.org/2000/svg"
   xmlns:sodipodi="http://sodipodi.sourceforge.net/DTD/sodipodi-0.dtd"
   xmlns:inkscape="http://www.inkscape.org/namespaces/inkscape"
   version="1.0"
   id="Layer_1"
   x="0px"
   y="0px"
   width="12.283px"
   height="38px"
   viewBox="453.755 416.79 12.283 38"
   enable-background="new 453.755 416.79 12.283 38"
   xml:space="preserve"
   inkscape:version="0.48.3.1 r9886"
   sodipodi:docname="google.svg"><metadata
   id="metadata25"><rdf:RDF><cc:Work
       rdf:about=""><dc:format>image/svg+xml</dc:format><dc:type
         rdf:resource="http://purl.org/dc/dcmitype/StillImage" /></cc:Work></rdf:RDF></metadata><defs
   id="defs23" /><sodipodi:namedview
   pagecolor="#ffffff"
   bordercolor="#666666"
   borderopacity="1"
   objecttolerance="10"
   gridtolerance="10"
   guidetolerance="10"
   inkscape:pageopacity="0"
   inkscape:pageshadow="2"
   inkscape:window-width="1920"
   inkscape:window-height="996"
   id="namedview21"
   showgrid="false"
   inkscape:zoom="128"
   inkscape:cx="7.42261"
   inkscape:cy="21.215001"
   inkscape:window-x="0"
   inkscape:window-y="30"
   inkscape:window-maximized="1"
   inkscape:current-layer="Layer_1" />
<g
   id="g3"
   transform="translate(0.00390625,0.00390625)">
	<g
   id="g5">
		<g
   id="g7">
			<g
   id="g9">
				<path
   d="m 463.507,446.728 c -0.532,-0.377 -1.549,-1.294 -1.549,-1.831 0,-0.631 0.181,-0.94 1.128,-1.684 0.977,-0.759 1.663,-1.832 1.663,-3.072 0,-1.481 -0.658,-2.925 -1.896,-3.398 h 1.866 l 1.32,-0.952 h -5.885 c -2.642,0 -5.123,2 -5.123,4.312 0,2.365 1.798,4.275 4.482,4.275 0.187,0 0.363,-0.004 0.544,-0.017 -0.175,0.334 -0.299,0.708 -0.299,1.1 0,0.656 0.354,1.192 0.798,1.627 -0.335,0 -0.662,0.009 -1.017,0.009 -3.268,0 -5.784,2.08 -5.784,4.241 0,2.122 2.759,3.452 6.027,3.452 3.724,0 5.783,-2.111 5.783,-4.237 0.002,-1.705 -0.502,-2.726 -2.058,-3.825 m -3.142,-2.953 c -1.517,-0.043 -2.955,-1.694 -3.221,-3.686 -0.265,-1.993 0.755,-3.515 2.271,-3.47 1.516,0.044 2.958,1.646 3.218,3.634 0.263,1.994 -0.755,3.57 -2.268,3.522 m -0.595,10.076 c -2.257,0 -3.89,-1.43 -3.89,-3.146 0,-1.684 2.021,-3.085 4.282,-3.062 0.527,0.006 1.017,0.09 1.465,0.236 1.227,0.852 2.105,1.332 2.354,2.305 0.048,0.195 0.07,0.398 0.07,0.607 0,1.719 -1.103,3.06 -4.281,3.06"
   id="path11"
   inkscape:connector-curvature="0"
   style="fill:#13a541" />
			</g>
		</g>
	</g>
</g>
<g
   id="g13">
	<g
   id="g15">
		<g
   id="g17">
			<path
   fill="#4E4E4E"
   d="M463.507,427.728c-0.532-0.377-1.549-1.294-1.549-1.831c0-0.631,0.181-0.94,1.128-1.684     c0.977-0.759,1.663-1.832,1.663-3.072c0-1.481-0.658-2.925-1.896-3.398h1.866l1.32-0.952h-5.885c-2.642,0-5.123,2-5.123,4.312     c0,2.365,1.798,4.275,4.482,4.275c0.187,0,0.363-0.004,0.544-0.017c-0.175,0.334-0.299,0.708-0.299,1.1     c0,0.656,0.354,1.192,0.798,1.627c-0.335,0-0.662,0.009-1.017,0.009c-3.268,0-5.784,2.08-5.784,4.241     c0,2.122,2.759,3.452,6.027,3.452c3.724,0,5.783-2.112,5.783-4.237C465.567,429.848,465.063,428.827,463.507,427.728      M460.365,424.775c-1.517-0.043-2.955-1.694-3.221-3.686c-0.265-1.993,0.755-3.515,2.271-3.47     c1.516,0.044,2.958,1.646,3.218,3.635C462.896,423.247,461.878,424.824,460.365,424.775 M459.77,434.851     c-2.257,0-3.89-1.43-3.89-3.146c0-1.684,2.021-3.085,4.282-3.062c0.527,0.006,1.017,0.09,1.465,0.236     c1.227,0.852,2.105,1.332,2.354,2.305c0.048,0.195,0.07,0.398,0.07,0.607C464.051,433.51,462.948,434.851,459.77,434.851"
   id="path19" />
		</g>
	</g>
</g>
</svg>