<?xml version="1.0" encoding="utf-8"?>
<!-- Generator: Adobe Illustrator 16.0.0, SVG Export Plug-In . SVG Version: 6.00 Build 0)  -->
<!DOCTYPE svg PUBLIC "-//W3C//DTD SVG 1.0//EN" "http://www.w3.org/TR/2001/REC-SVG-20010904/DTD/svg10.dtd">
<svg version="1.0" id="Layer_1" xmlns="http://www.w3.org/2000/svg" xmlns:xlink="http://www.w3.org/1999/xlink" x="0px" y="0px"
	 width="12.353px" height="19px" viewBox="14.619 20.312 12.353 19" enable-background="new 14.619 20.312 12.353 19"
	 xml:space="preserve">
<g>
	<g>
		<g>
			<g>
				<path fill="#13A541" d="M24.438,31.25c-0.531-0.377-1.549-1.295-1.549-1.83c0-0.633,0.182-0.941,1.129-1.686
					c0.977-0.758,1.662-1.832,1.662-3.072c0-1.48-0.658-2.924-1.896-3.396h1.867l1.32-0.953h-5.885c-2.643,0-5.123,2-5.123,4.312
					c0,2.365,1.797,4.275,4.48,4.275c0.188,0,0.363-0.004,0.545-0.018c-0.176,0.334-0.299,0.709-0.299,1.1
					c0,0.656,0.354,1.193,0.797,1.627c-0.334,0-0.662,0.01-1.016,0.01c-3.268,0-5.785,2.08-5.785,4.24
					c0,2.123,2.76,3.453,6.027,3.453c3.725,0,5.783-2.111,5.783-4.238C26.499,33.369,25.995,32.35,24.438,31.25 M21.298,28.297
					c-1.518-0.043-2.955-1.693-3.223-3.686c-0.264-1.994,0.756-3.516,2.271-3.471s2.959,1.646,3.219,3.635
					C23.829,26.77,22.81,28.346,21.298,28.297 M20.702,38.373c-2.258,0-3.891-1.43-3.891-3.146c0-1.684,2.021-3.084,4.283-3.062
					c0.527,0.008,1.016,0.092,1.465,0.236c1.227,0.854,2.105,1.332,2.354,2.305c0.049,0.195,0.07,0.398,0.07,0.607
					C24.983,37.031,23.88,38.373,20.702,38.373"/>
			</g>
		</g>
	</g>
</g>
</svg>
