<?xml version="1.0" encoding="utf-8"?>
<!-- Generator: Adobe Illustrator 16.0.0, SVG Export Plug-In . SVG Version: 6.00 Build 0)  -->
<!DOCTYPE svg PUBLIC "-//W3C//DTD SVG 1.0//EN" "http://www.w3.org/TR/2001/REC-SVG-20010904/DTD/svg10.dtd">
<svg version="1.0" id="Layer_1" xmlns="http://www.w3.org/2000/svg" xmlns:xlink="http://www.w3.org/1999/xlink" x="0px" y="0px"
	 width="142.989px" height="36.991px" viewBox="-8.444 6.37 142.989 36.991" enable-background="new -8.444 6.37 142.989 36.991"
	 xml:space="preserve">
<g>
	<g>
		<path fill="#18A64A" d="M33.368,10.02c-3.584-1.921-6.949,2.301-9.43,4.691c-1.504,1.456-2.824,3.083-4.436,4.4
			c-0.325-0.58-0.331-1.765-0.403-2.726c-0.063-2.147,0.015-2.829,0.056-4.762c0.06-2.928-5.535-1.929-5.584,0.543
			c-0.078,3.604,0.162,7.523,1.279,10.392c1.153,1.914,4.051,1.746,5.758,1.096c2.441-0.934,4.316-4.256,6.125-6.158
			c0.564-0.596,1.109-1.213,1.688-1.792c-0.635,2.914-1.893,7.275-2.021,7.802c-1.388,5.713-3.019,11.377-3.871,17.219
			c-0.41,2.814,5.224,1.938,5.584-0.541c0.957-6.551,2.854-12.9,4.377-19.318C32.985,18.771,36.02,11.44,33.368,10.02z"/>
		<path fill="#18A64A" d="M58.363,13.048c0.147-0.021,0.292-0.042,0.437-0.062c-0.416-0.157-0.834-0.316-1.252-0.473
			c0.73,2.002,0.979,4.096,1.281,6.195c0.213,1.471,0.021,2.881,0.178,4.324c0.137,1.273,1.887,0.846,2.645,0.549
			c3.674-1.428,5.12-5.76,7.247-8.799c0.277-0.392,0.59-0.748,0.938-1.077c-1.295,0.101-1.514,0.378-0.653,0.838
			c0.713,0.856,0.891,2.186,1.086,3.24c0.492,2.625,1.146,5.223,1.586,7.857c0.377,2.266,5.475-0.223,5.158-2.127
			c-0.504-3.029-1.172-6.084-1.836-9.081c-0.48-2.159-1.49-4.311-4.025-4.168c-2.637,0.148-4.87,2.199-6.37,4.195
			c-0.795,1.06-1.496,2.169-2.223,3.274c-0.317,0.482-2.043,3.012-1.039,2.623c0.882,0.184,1.763,0.367,2.645,0.549
			c-0.066-0.615,0.27-1.227,0.186-1.807c-0.166-1.164-0.334-2.33-0.502-3.491c-0.297-2.058-0.648-4.046-1.365-6.002
			c-0.151-0.416-0.899-0.523-1.252-0.477c-0.145,0.022-0.291,0.047-0.436,0.064c-1.354,0.196-2.736,0.858-3.488,2.055
			C56.721,12.175,57.156,13.224,58.363,13.048L58.363,13.048z"/>
		<path fill="#18A64A" d="M37.823,13.048c0.145-0.021,0.291-0.042,0.438-0.062c-0.419-0.156-0.838-0.315-1.252-0.472
			c0.73,2.002,0.978,4.096,1.279,6.194c0.213,1.473,0.021,2.883,0.178,4.324c0.139,1.273,1.888,0.846,2.646,0.549
			c3.669-1.428,5.118-5.758,7.246-8.798c0.274-0.392,0.588-0.748,0.936-1.077c-1.297,0.101-1.513,0.378-0.654,0.838
			c0.712,0.856,0.889,2.186,1.088,3.241c0.489,2.625,1.148,5.221,1.586,7.855c0.375,2.266,5.473-0.223,5.157-2.127
			c-0.503-3.027-1.172-6.084-1.837-9.08c-0.481-2.159-1.49-4.311-4.027-4.168c-2.636,0.148-4.865,2.199-6.367,4.195
			c-0.793,1.06-1.492,2.169-2.219,3.273c-0.32,0.484-2.047,3.014-1.043,2.623c0.883,0.184,1.764,0.367,2.646,0.551
			c-0.066-0.617,0.27-1.227,0.184-1.809c-0.168-1.164-0.333-2.329-0.505-3.49c-0.296-2.058-0.646-4.046-1.36-6.002
			c-0.152-0.416-0.904-0.523-1.252-0.477c-0.148,0.022-0.291,0.047-0.438,0.064c-1.352,0.196-2.736,0.858-3.489,2.055
			C36.182,12.175,36.616,13.224,37.823,13.048L37.823,13.048z"/>
		<path fill="#18A64A" d="M82.134,19.496c3.139-0.037,6.238-0.375,9.178-1.535c1.926-0.76,5.451-2.368,5.645-4.823
			c0.363-4.586-8.311-3.703-10.746-2.873C81.722,11.792,76.33,17.14,79.8,22c2.938,4.111,9.449,3.283,13.797,3.252
			c1.355-0.006,2.836-0.668,3.631-1.797c0.66-0.941,0.232-1.984-0.98-1.975c-3.604,0.023-14.482,0.768-11.914-5.977
			c0.973-2.556,4.166-2.477,6.262-1.738c1.916,0.668,0.387,0.994-0.75,1.364c-1.602,0.524-3.395,0.572-5.059,0.594
			c-1.355,0.014-2.834,0.663-3.627,1.796C80.496,18.457,80.914,19.511,82.134,19.496L82.134,19.496z"/>
		<path fill="#18A64A" d="M112.544,12.734c2.26-3.995-3.502-7.091-6.938-5.608c-4.584,1.979-5.824,6.923-6.602,11.449
			c-0.875,5.139-0.848,10.703,0.184,15.805c0.459,2.262,0.57,4.041,2.9,5.205c1.434,0.713,3.018,0.598,3.838-0.836
			c1.246-2.172-3.854-4.775-5.125-2.555c0.107-0.076,0.219-0.152,0.328-0.229c1.271,0.387,2.535,0.77,3.807,1.15
			c-0.855-0.789-0.947-4.643-1.049-5.725c-0.221-2.311-0.025-4.734,0.08-7.049c0.111-2.381,1.225-14.738,5.887-13.144
			c-0.758-0.558-1.521-1.116-2.275-1.673c-0.057,0.217-0.107,0.435-0.16,0.65C106.181,12.36,111.281,14.962,112.544,12.734
			L112.544,12.734z"/>
		<path fill="#18A64A" d="M104.476,19.404c0.656-0.215,1.793-0.043,2.449-0.043c1.412,0,2.824,0,4.234,0c2.203,0,4.408,0,6.611,0
			c0.58,0-1.088-1.758-1.193-1.853c-0.629-0.56-1.992-2.147-2.93-2.147c-2.557,0-5.111,0-7.672,0c-1.814,0-4.234-0.332-5.938,0.223
			C100.376,15.476,103.066,19.869,104.476,19.404L104.476,19.404z"/>
		<polyline fill="#18A64A" points="121.996,12.708 121.783,12.071 120.166,12.04 		"/>
		<path fill="#18A64A" d="M133.162,15.447c-1.6-2.5-5.438-3.688-8.135-4.312c-3.02-0.7-6.451-0.427-9.354,0.604
			c-1.998,0.705-1.127,1.149,0.229,1.306c-1.561,1.391-2.52,3.502-2.639,5.848c-0.291,5.824,7.875,6.609,11.902,6.062
			C129.675,24.347,136.632,20.875,133.162,15.447z M123.966,22.47c-2.773-0.131-4.84-2.188-5.016-4.65
			c-0.062-0.909,0.336-1.745,0.715-2.557c0.223-0.48,0.461-0.887,0.781-1.388c0.199-0.312,0.627-0.729,1.094-1.062
			c2.387,0.456,4.881,2.019,6.189,3.46C129.919,18.67,127.027,22.615,123.966,22.47z"/>
		<path fill="#18A64A" d="M9.366,10.709C6.789,9.66,4.177,9.675,1.497,10.233c-2.729,0.572-6.205,1.937-7.977,4.206
			c-0.413,0.531-0.643,1.405-0.234,2.002c0.868,1.264,2.549,1.438,3.951,1.7c2.309,0.432,5.082,1.398,7.137,2.529
			c0.219,0.105,0.436,0.219,0.656,0.328c0.789,0.717,1.241,0.363,1.355-1.062c-1.281,0.678-2.766,0.834-4.187,0.973
			c-2.286,0.223-4.198-0.279-6.35-0.959c-2.091-0.658-5.589,3.217-2.806,4.092c3.234,1.016,5.953,1.26,9.337,0.861
			c2.374-0.283,6.06-1.229,7.479-3.389c1.518-2.312,0.421-3.453-1.76-4.554c-1.628-0.816-3.357-1.4-5.078-1.99
			c-0.984-0.339-1.982-0.629-2.98-0.914c-0.533-0.155-1.976-0.127-2.341-0.66c-0.078,0.666-0.153,1.333-0.232,2.002
			c-1.186,1.519,0.298,0.201,0.888-0.197c1.041-0.7,2.369-0.881,3.568-1.131c1.486-0.31,3.262,0.171,4.635,0.731
			C8.585,15.625,12.085,11.822,9.366,10.709L9.366,10.709z"/>
	</g>
</g>
</svg>
