<?xml version="1.0" encoding="utf-8"?>
<!-- Generator: Adobe Illustrator 16.0.0, SVG Export Plug-In . SVG Version: 6.00 Build 0)  -->
<!DOCTYPE svg PUBLIC "-//W3C//DTD SVG 1.0//EN" "http://www.w3.org/TR/2001/REC-SVG-20010904/DTD/svg10.dtd">
<svg version="1.0" id="Layer_1" xmlns="http://www.w3.org/2000/svg" xmlns:xlink="http://www.w3.org/1999/xlink" x="0px" y="0px"
	 width="20px" height="18px" viewBox="0 -0.87 20 18" enable-background="new 0 -0.87 20 18" xml:space="preserve">
<g>
	<g>
		<g>
			<g>
				<g>
					<path fill="#13A541" d="M19.999,1.927c-0.733,0.325-1.526,0.548-2.354,0.646c0.844-0.506,1.498-1.312,1.809-2.271
						c-0.801,0.469-1.678,0.812-2.607,0.996C16.094,0.501,15.027,0,13.852,0c-2.271,0-4.104,1.841-4.104,4.104
						c0,0.322,0.031,0.636,0.104,0.936c-3.41-0.168-6.43-1.805-8.458-4.285C1.042,1.36,0.839,2.066,0.839,2.816
						c0,1.424,0.725,2.681,1.828,3.413C1.991,6.212,1.356,6.026,0.804,5.717c0,0.021,0,0.033,0,0.054
						c0,1.983,1.417,3.646,3.293,4.023C3.752,9.888,3.392,9.937,3.014,9.937c-0.265,0-0.519-0.023-0.771-0.07
						c0.521,1.627,2.037,2.814,3.832,2.848c-1.4,1.104-3.17,1.754-5.096,1.754c-0.326,0-0.658-0.02-0.979-0.055
						c1.818,1.162,3.977,1.848,6.294,1.848c7.545,0,11.672-6.258,11.672-11.679c0-0.179-0.006-0.354-0.012-0.529
						C18.756,3.471,19.448,2.749,19.999,1.927z"/>
				</g>
			</g>
		</g>
	</g>
</g>
</svg>
