<?xml version="1.0" encoding="utf-8"?>
<!-- Generator: Adobe Illustrator 16.0.0, SVG Export Plug-In . SVG Version: 6.00 Build 0)  -->
<!DOCTYPE svg PUBLIC "-//W3C//DTD SVG 1.0//EN" "http://www.w3.org/TR/2001/REC-SVG-20010904/DTD/svg10.dtd">
<svg version="1.0" id="Layer_1" xmlns="http://www.w3.org/2000/svg" xmlns:xlink="http://www.w3.org/1999/xlink" x="0px" y="0px"
	 width="20px" height="32.519px" viewBox="0 0 20 32.519" enable-background="new 0 0 20 32.519" xml:space="preserve">
<g>
	<g>
		<g>
			<g>
				<g>
					<path fill="#13A541" d="M19.999,18.187c-0.734,0.324-1.527,0.547-2.355,0.646c0.844-0.509,1.498-1.312,1.808-2.271
						c-0.799,0.468-1.676,0.812-2.608,0.996c-0.749-0.799-1.814-1.3-2.991-1.3c-2.271,0-4.104,1.84-4.104,4.104
						c0,0.322,0.031,0.638,0.104,0.936c-3.41-0.169-6.43-1.806-8.458-4.286c-0.351,0.608-0.554,1.312-0.554,2.062
						c0,1.427,0.725,2.681,1.828,3.414c-0.676-0.018-1.311-0.203-1.863-0.513c0,0.02,0,0.033,0,0.052
						c0,1.985,1.417,3.647,3.293,4.024c-0.345,0.096-0.705,0.145-1.083,0.145c-0.265,0-0.519-0.023-0.771-0.069
						c0.521,1.626,2.037,2.813,3.832,2.845c-1.4,1.103-3.17,1.755-5.096,1.755c-0.326,0-0.658-0.017-0.979-0.055
						c1.818,1.163,3.977,1.847,6.294,1.847c7.545,0,11.672-6.256,11.672-11.678c0-0.179-0.006-0.354-0.012-0.529
						C18.756,19.731,19.448,19.009,19.999,18.187z"/>
				</g>
			</g>
		</g>
	</g>
</g>
<g>
	<g>
		<g>
			<g>
				<g>
					<path fill="#4E4E4E" d="M19.999,1.927c-0.734,0.325-1.527,0.547-2.355,0.646c0.844-0.506,1.498-1.312,1.808-2.27
						c-0.799,0.468-1.676,0.811-2.608,0.996C16.094,0.501,15.028,0,13.852,0c-2.271,0-4.104,1.841-4.104,4.104
						c0,0.323,0.031,0.636,0.104,0.936c-3.41-0.168-6.43-1.805-8.458-4.285C1.042,1.36,0.839,2.066,0.839,2.816
						c0,1.424,0.725,2.681,1.828,3.413C1.991,6.212,1.356,6.026,0.804,5.717c0,0.02,0,0.033,0,0.053
						c0,1.984,1.417,3.646,3.293,4.024C3.752,9.888,3.392,9.937,3.014,9.937c-0.265,0-0.519-0.023-0.771-0.071
						c0.521,1.627,2.037,2.815,3.832,2.848c-1.4,1.103-3.17,1.755-5.096,1.755c-0.326,0-0.658-0.02-0.979-0.056
						c1.818,1.162,3.977,1.848,6.294,1.848c7.545,0,11.672-6.257,11.672-11.679c0-0.179-0.006-0.354-0.012-0.529
						C18.756,3.471,19.448,2.749,19.999,1.927z"/>
				</g>
			</g>
		</g>
	</g>
</g>
</svg>
